<svg width="67" height="67" viewBox="0 0 67 67" fill="none" xmlns="http://www.w3.org/2000/svg">
<g id="svgexport-10 (3)" clip-path="url(#clip0_145_2096)">
<g id="Group">
<path id="Vector" d="M51.8908 4.44355C46.2896 6.89463 40.7603 11.0073 38.4024 16.7276C38.1352 17.3805 37.9365 18.1212 37.7718 18.8821C40.0473 20.387 41.8969 22.1185 43.4159 24.1506C44.716 25.8992 45.7386 27.731 46.5445 29.6184C46.9209 29.0733 47.2632 28.5013 47.5714 27.9023C48.7975 25.5201 49.8731 22.9422 51.0305 20.4315C50.408 22.7895 50.188 25.4908 49.3817 27.7482C48.8751 29.1557 48.1712 30.4559 47.331 31.6688C48.5821 35.263 49.1965 39.0241 49.6683 42.7791C54.7092 39.7008 58.7306 33.1761 60.5374 28.2666C62.4243 23.1395 62.6244 17.3449 63.1778 11.6498C63.515 8.16074 64.7929 4.3604 66.2945 1.57618C66.6364 0.943095 66.0555 0.275245 65.3582 0.496815C61.0053 1.88844 56.0714 2.61215 51.8908 4.44355Z" fill="#32B04C" fill-opacity="0.25"/>
<path id="Vector_2" d="M52.9428 64.5746C49.4148 58.1799 48.9401 50.8226 48.066 43.6171C47.6364 40.0992 47.112 36.6157 46.0866 33.305C45.865 32.5873 45.6161 31.8699 45.3402 31.1661C44.5263 29.0752 43.4618 27.0605 42.0454 25.1634C40.7179 23.381 39.1482 21.9258 37.4241 20.7023C34.6709 18.7527 31.5078 17.4028 28.2241 16.2978C22.2618 14.2807 15.9336 13.3785 9.6464 13.6022C7.0963 13.6932 4.44423 13.751 1.95877 14.3979C1.41022 14.5439 0.712467 14.6841 0.30821 15.114C-0.224101 15.6737 0.331777 16.6674 1.11043 16.4385C6.60142 14.7886 13.0385 15.7511 18.3101 17.949C24.3707 20.4743 27.9979 25.4031 30.2278 31.4398C30.8215 33.0437 31.3409 34.6821 31.8332 36.3477C31.847 36.3815 31.8472 36.4154 31.8474 36.4493C31.8495 36.7817 31.3621 36.9273 31.2038 36.5824C30.3025 34.6209 29.3945 32.673 28.4125 30.8205C23.6055 21.7477 12.5228 17.8438 12.5448 21.2559C12.5466 21.5341 12.6233 21.8591 12.7817 22.2312C14.9931 27.4811 15.0537 33.7354 16.1627 39.5147C16.5489 41.5474 17.0704 43.5249 17.8557 45.3786C20.9829 52.7392 27.0406 57.978 34.3056 61.072C39.727 63.3775 46.1161 64.2453 51.7443 65.9797C52.4648 66.2057 53.0788 65.6929 53.0748 65.0688C53.0807 64.9129 53.0388 64.7436 52.9428 64.5746Z" fill="#32B04C" fill-opacity="0.25"/>
</g>
</g>
<defs>
<clipPath id="clip0_145_2096">
<rect width="66.3893" height="66.3893" fill="white" transform="translate(66.3877) rotate(89.6311)"/>
</clipPath>
</defs>
</svg>
