<svg width="150" height="150" viewBox="0 0 150 150" fill="none" xmlns="http://www.w3.org/2000/svg">
<g id="svgexport-10 (3)" clip-path="url(#clip0_145_2101)">
<g id="Group">
<path id="Vector" d="M116.338 9.96219C103.781 15.4575 91.384 24.6779 86.0976 37.5027C85.4987 38.9666 85.0531 40.6273 84.6839 42.3331C89.7854 45.707 93.9322 49.589 97.3378 54.145C100.253 58.0652 102.545 62.1722 104.352 66.4038C105.196 65.1816 105.963 63.8993 106.654 62.5563C109.403 57.2154 111.815 51.4358 114.41 45.8069C113.014 51.0934 112.521 57.1497 110.713 62.2108C109.577 65.3663 107.999 68.2814 106.115 71.0007C108.92 79.0588 110.298 87.4909 111.356 95.9098C122.657 89.0083 131.673 74.3799 135.724 63.3729C139.954 51.8781 140.403 38.8867 141.644 26.1184C142.4 18.2961 145.265 9.77578 148.631 3.53362C149.398 2.11425 148.095 0.616946 146.532 1.1137C136.773 4.2337 125.711 5.85625 116.338 9.96219Z" fill="#32B04C" fill-opacity="0.25"/>
<path id="Vector_2" d="M118.697 144.775C110.787 130.438 109.723 113.943 107.763 97.7887C106.8 89.9016 105.624 82.0916 103.325 74.6691C102.829 73.0601 102.271 71.4517 101.652 69.8738C99.8272 65.186 97.4407 60.669 94.265 56.4158C91.2889 52.4197 87.7697 49.1573 83.9041 46.4141C77.7317 42.0432 70.64 39.0167 63.278 36.5394C49.9107 32.0172 35.7229 29.9945 21.6272 30.4959C15.9099 30.7 9.96407 30.8295 4.39171 32.2798C3.16189 32.6071 1.59753 32.9214 0.691199 33.8854C-0.50223 35.1402 0.744035 37.3679 2.48977 36.8548C14.8004 33.1558 29.2323 35.3138 41.051 40.2414C54.6389 45.9029 62.7708 56.9532 67.7703 70.4874C69.1014 74.0834 70.2658 77.7566 71.3696 81.4907C71.4004 81.5666 71.4009 81.6426 71.4014 81.7187C71.4062 82.4639 70.3134 82.7903 69.9584 82.0169C67.9377 77.6193 65.902 73.2522 63.7004 69.099C52.9231 48.7579 28.0761 40.0054 28.1253 47.6553C28.1294 48.2789 28.3014 49.0077 28.6565 49.8419C33.6144 61.6122 33.7502 75.634 36.2366 88.5913C37.1025 93.1484 38.2717 97.5819 40.0323 101.738C47.0434 118.24 60.6246 129.985 76.9125 136.922C89.0674 142.091 103.392 144.037 116.01 147.925C117.625 148.432 119.002 147.282 118.993 145.883C119.006 145.533 118.912 145.154 118.697 144.775Z" fill="#32B04C" fill-opacity="0.25"/>
</g>
</g>
<defs>
<clipPath id="clip0_145_2101">
<rect width="148.843" height="148.843" fill="white" transform="translate(148.84) rotate(89.6311)"/>
</clipPath>
</defs>
</svg>
